<?xml version="1.0" standalone="no"?>
<!DOCTYPE svg PUBLIC "-//W3C//DTD SVG 20010904//EN"
 "http://www.w3.org/TR/2001/REC-SVG-20010904/DTD/svg10.dtd">
<svg version="1.0" xmlns="http://www.w3.org/2000/svg"
 width="650.000000pt" height="400.000000pt" viewBox="0 0 650.000000 400.000000"
 preserveAspectRatio="xMidYMid meet">

<g transform="translate(0.000000,400.000000) scale(0.100000,-0.100000)"
fill="#000000" stroke="none">
<path d="M0 2000 l0 -2000 3250 0 3250 0 0 2000 0 2000 -3250 0 -3250 0 0
-2000z m3340 1182 c-10 -2 -21 -10 -24 -18 -3 -8 -2 -13 3 -10 5 3 20 -3 32
-13 24 -19 24 -20 4 -38 -11 -10 -28 -17 -37 -15 -27 5 -21 22 7 22 17 0 25 6
25 17 0 9 -3 13 -6 10 -9 -9 -44 11 -44 25 0 21 34 45 46 34 9 -8 7 -12 -6
-14z m76 -188 c-4 -9 -1 -23 5 -30 8 -9 8 -14 1 -14 -13 0 -26 36 -17 50 10
16 18 12 11 -6z m-559 -166 c-2 -13 -4 -5 -4 17 -1 22 1 32 4 23 2 -10 2 -28
0 -40z m49 15 c3 -26 -9 -43 -31 -43 -5 1 -2 5 8 11 9 5 17 14 17 19 0 6 -8
10 -17 10 -17 1 -17 1 0 11 9 6 14 16 11 22 -4 7 -3 9 1 5 5 -5 10 -20 11 -35z
m164 -193 c0 -5 7 -10 15 -10 8 0 15 -9 15 -20 0 -16 -5 -19 -24 -14 -38 9
-39 -12 -1 -35 44 -26 46 -56 5 -94 -27 -26 -31 -27 -46 -13 -8 9 -22 16 -30
16 -8 0 -14 9 -14 19 0 17 5 19 35 14 21 -3 35 -2 35 5 0 5 -16 19 -35 31 -38
22 -46 51 -20 73 9 7 21 18 28 25 15 15 37 17 37 3z m230 0 c-12 -8 -13 -13
-2 -30 10 -17 10 -20 -2 -20 -16 0 -31 34 -21 50 3 5 14 10 23 10 15 0 15 -2
2 -10z m-563 -193 c3 8 13 4 31 -12 23 -21 25 -28 15 -44 -10 -16 -9 -20 3
-25 21 -8 14 -46 -11 -60 -11 -6 -23 -15 -27 -21 -5 -6 -8 -5 -8 3 0 19 -20
14 -21 -5 -1 -17 -2 -17 -6 0 -2 9 -11 17 -19 17 -16 0 -20 60 -5 88 6 9 13
30 16 46 5 24 8 27 16 15 8 -10 12 -11 16 -2z m-50 -44 c-3 -10 -5 -4 -5 12 0
17 2 24 5 18 2 -7 2 -21 0 -30z m458 -91 c-13 -3 -15 -33 -15 -196 l0 -193
-30 -31 c-16 -18 -30 -28 -30 -24 0 5 11 19 25 32 25 23 25 24 25 217 0 166
-2 193 -15 193 -14 0 -14 4 1 31 l16 32 19 -29 c16 -24 17 -30 4 -32z m261 -7
c3 -14 9 -25 13 -25 4 0 13 11 19 25 6 14 19 25 27 25 14 0 13 -5 -5 -30 -18
-25 -19 -30 -6 -30 25 0 19 -20 -6 -21 l-23 -2 23 -4 c27 -5 29 -23 2 -23 -11
0 -20 -7 -20 -15 0 -8 -4 -15 -10 -15 -5 0 -10 7 -10 15 0 8 -9 15 -20 15 -28
0 -25 20 3 21 l22 2 -22 4 c-26 5 -31 23 -7 23 14 0 14 2 0 22 -20 28 -20 38
-1 38 8 0 17 -11 21 -25z m-386 -117 l12 -33 16 33 c8 17 22 32 29 32 17 0 16
-5 -4 -36 -14 -22 -14 -27 -2 -35 11 -7 11 -9 -3 -9 -10 0 -18 -4 -18 -10 0
-5 8 -11 18 -11 16 -1 16 -2 0 -6 -10 -2 -18 -13 -18 -24 0 -10 -7 -19 -15
-19 -8 0 -15 9 -15 20 0 14 -7 20 -22 21 l-23 2 23 4 c12 2 22 9 22 14 0 5
-10 10 -22 10 -17 1 -19 2 -5 6 21 5 21 13 2 39 -18 24 -19 34 -1 34 8 0 19
-15 26 -32z m347 -138 c3 -11 14 -20 24 -20 23 0 32 -16 25 -45 -5 -21 -9 -23
-38 -15 -21 7 -36 6 -45 -1 -18 -15 -8 -27 38 -46 68 -27 81 -92 29 -136 -16
-14 -30 -33 -30 -41 0 -10 -9 -16 -25 -16 -15 0 -25 6 -25 14 0 9 -15 17 -40
21 -41 7 -49 21 -34 59 4 11 11 13 31 5 68 -25 112 10 45 38 -49 20 -82 51
-82 78 0 27 34 72 60 80 11 4 20 15 20 26 0 26 40 26 47 -1z m-267 -4 c0 -3
-4 -8 -10 -11 -5 -3 -10 -1 -10 4 0 6 5 11 10 11 6 0 10 -2 10 -4z m-286 -52
c26 -10 18 -24 -13 -24 -16 0 -34 -7 -41 -15 -11 -13 -7 -15 24 -15 21 0 35
-4 32 -8 -3 -5 -19 -7 -36 -4 -18 2 -30 0 -30 -7 0 -6 16 -11 35 -11 19 0 35
-4 35 -10 0 -5 -17 -10 -37 -10 -36 -1 -37 -1 -18 -16 11 -8 30 -12 43 -9 15
4 22 1 22 -10 0 -11 -11 -15 -38 -15 -30 0 -45 7 -64 28 -33 38 -31 61 8 100
33 32 49 37 78 26z m266 -264 c0 -5 -5 -10 -11 -10 -5 0 -7 5 -4 10 3 6 8 10
11 10 2 0 4 -4 4 -10z m107 -6 c-3 -3 -12 -4 -19 -1 -8 3 -5 6 6 6 11 1 17 -2
13 -5z m-334 -11 c-7 -2 -19 -2 -25 0 -7 3 -2 5 12 5 14 0 19 -2 13 -5z m-120
-20 c-7 -2 -21 -2 -30 0 -10 3 -4 5 12 5 17 0 24 -2 18 -5z m-93 -19 c-202
-62 -211 -140 -25 -202 113 -38 386 -75 429 -59 20 8 10 37 -13 38 -14 1 -14
2 2 6 20 5 23 23 5 23 -9 0 -8 3 2 10 9 6 17 5 21 -2 4 -6 12 -8 18 -4 7 5 9
1 5 -8 -4 -11 0 -16 10 -16 9 0 16 -5 16 -11 0 -5 -5 -7 -11 -3 -12 7 -31 -15
-23 -28 7 -11 169 -10 284 2 190 20 353 76 371 128 12 33 -32 76 -111 107 -43
17 -53 23 -30 19 48 -8 130 -54 153 -85 15 -22 17 -30 8 -48 -69 -129 -634
-189 -1031 -110 -211 42 -307 114 -237 179 39 38 135 79 182 78 11 0 0 -6 -25
-14z m907 10 c-3 -3 -12 -4 -19 -1 -8 3 -5 6 6 6 11 1 17 -2 13 -5z m-467 -24
c0 -5 -2 -10 -4 -10 -3 0 -8 5 -11 10 -3 6 -1 10 4 10 6 0 11 -4 11 -10z
m-176 -25 c-68 -30 -63 -55 18 -80 24 -8 36 -14 27 -14 -24 -1 -82 20 -101 37
-15 12 -16 18 -5 30 13 16 65 42 82 41 6 0 -4 -7 -21 -14z m434 -5 c38 -23 41
-44 10 -64 -29 -19 -106 -37 -113 -26 -2 4 10 10 28 13 94 16 112 47 45 77
-28 12 -36 19 -23 19 11 1 35 -8 53 -19z m-768 -8 c0 -4 -9 -13 -20 -20 -16
-10 -20 -10 -20 2 0 8 6 17 13 19 19 8 27 8 27 -1z m-243 -30 c-10 -10 -17
-28 -17 -40 0 -30 42 -75 89 -97 39 -17 60 -42 24 -27 -123 51 -164 113 -111
169 25 27 39 22 15 -5z m953 8 c0 -5 -4 -10 -10 -10 -5 0 -10 5 -10 10 0 6 5
10 10 10 6 0 10 -4 10 -10z m-700 -10 c0 -5 -5 -10 -11 -10 -5 0 -7 5 -4 10 3
6 8 10 11 10 2 0 4 -4 4 -10z m1040 -12 c0 -5 -7 -8 -16 -6 -10 2 -19 -3 -21
-10 -3 -7 1 -10 10 -6 14 5 34 -12 24 -22 -6 -7 -57 17 -57 27 0 4 7 14 15 23
16 15 45 12 45 -6z m-495 -28 c-3 -5 -1 -10 6 -10 7 0 9 -3 5 -7 -4 -5 -11 -7
-14 -6 -4 0 -15 -3 -24 -8 -14 -8 -18 -6 -18 10 0 12 8 21 23 24 12 2 23 5 25
6 2 0 0 -3 -3 -9z m-80 -11 c10 -14 1 -21 -19 -13 -9 3 -13 10 -10 15 7 12 21
11 29 -2z m162 -5 c-3 -3 -12 -4 -19 -1 -8 3 -5 6 6 6 11 1 17 -2 13 -5z m377
-10 c23 -9 20 -23 -4 -17 -11 3 -20 9 -20 14 0 11 3 11 24 3z m116 -84 c0 -5
-8 -10 -17 -10 -15 0 -16 2 -3 10 19 12 20 12 20 0z m-55 -20 c-27 -12 -43
-12 -25 0 8 5 22 9 30 9 10 0 8 -3 -5 -9z m-111 -18 c3 -5 -1 -9 -9 -9 -8 0
-12 4 -9 9 3 4 7 8 9 8 2 0 6 -4 9 -8z m43 2 c-3 -3 -12 -4 -19 -1 -8 3 -5 6
6 6 11 1 17 -2 13 -5z m190 -20 c2 -10 0 -13 -3 -6 -3 6 -12 12 -20 12 -9 0
-12 5 -9 11 10 15 30 5 32 -17z m-62 -4 c4 -6 -6 -10 -22 -9 -25 0 -26 1 -8 9
11 5 21 9 22 9 1 1 5 -3 8 -9z m-635 -9 c0 -6 -9 -9 -20 -8 -11 1 -20 5 -20 9
0 4 9 8 20 8 11 0 20 -4 20 -9z m50 -1 c0 -5 -9 -10 -21 -10 -11 0 -17 5 -14
10 3 6 13 10 21 10 8 0 14 -4 14 -10z m120 0 c0 -5 -4 -10 -10 -10 -5 0 -10 5
-10 10 0 6 5 10 10 10 6 0 10 -4 10 -10z m123 3 c-7 -2 -19 -2 -25 0 -7 3 -2
5 12 5 14 0 19 -2 13 -5z m286 -7 c-11 -9 -69 -14 -69 -6 0 5 15 10 33 12 32
3 44 1 36 -6z m-119 -16 c11 -11 16 -20 12 -20 -5 0 -17 9 -27 20 -10 11 -15
20 -12 20 4 0 16 -9 27 -20z m-65 -10 c3 -5 1 -10 -4 -10 -6 0 -11 5 -11 10 0
6 2 10 4 10 3 0 8 -4 11 -10z m40 0 c3 -5 2 -10 -4 -10 -5 0 -13 5 -16 10 -3
6 -2 10 4 10 5 0 13 -4 16 -10z m-145 -10 c0 -5 -2 -10 -4 -10 -3 0 -8 5 -11
10 -3 6 -1 10 4 10 6 0 11 -4 11 -10z m37 4 c-3 -3 -12 -4 -19 -1 -8 3 -5 6 6
6 11 1 17 -2 13 -5z m-340 -10 c-3 -3 -12 -4 -19 -1 -8 3 -5 6 6 6 11 1 17 -2
13 -5z m113 -4 c0 -5 -7 -10 -15 -10 -8 0 -15 5 -15 10 0 6 7 10 15 10 8 0 15
-4 15 -10z m136 -2 c-10 -5 -23 -5 -33 1 -15 8 -11 10 15 9 26 -1 30 -3 18
-10z m-933 -25 c-13 -2 -33 -2 -45 0 -13 2 -3 4 22 4 25 0 35 -2 23 -4z m194
0 c-4 -3 -2 -12 4 -19 20 -24 -28 -27 -53 -3 -23 22 -21 22 27 3 11 -5 13 -2
9 10 -4 10 -1 16 7 16 7 0 9 -3 6 -7z m131 1 c12 -4 22 -9 22 -13 0 -9 -83 -7
-99 3 -8 5 -16 3 -22 -5 -7 -11 -9 -10 -9 4 0 13 9 17 43 17 23 0 52 -3 65 -6z
m535 -19 c-4 -13 1 -15 31 -12 41 5 41 5 21 -34 -50 -97 -50 -89 -7 -113 6 -4
12 -2 12 3 0 6 -7 11 -15 11 -23 0 -7 25 18 27 12 1 42 6 67 11 42 10 60 8 49
-3 -3 -2 -22 -6 -42 -9 -47 -6 -92 -46 -52 -46 8 0 15 -4 15 -10 0 -5 -5 -10
-10 -10 -19 0 -100 42 -95 49 2 4 -6 6 -18 5 -33 -4 -33 -4 -13 -15 15 -9 16
-13 5 -20 -21 -13 -27 -11 -25 8 1 20 -33 30 -44 13 -5 -8 -9 -7 -13 4 -5 13
1 16 33 16 21 0 45 7 54 15 8 8 24 15 36 15 15 0 20 5 17 15 -4 8 -2 17 3 20
6 4 10 14 9 23 0 11 -3 12 -6 5 -2 -7 -9 -13 -14 -13 -6 0 -7 5 -4 10 3 6 -3
10 -13 10 -15 0 -19 5 -15 20 3 11 9 20 14 20 5 0 6 -7 2 -15z m414 -3 c-21
-23 -22 -36 -2 -28 18 7 20 -5 3 -22 -17 -17 -29 -15 -22 3 5 11 -1 15 -20 15
-17 0 -26 5 -26 16 0 11 5 14 16 10 9 -3 25 1 37 9 29 20 34 19 14 -3z m-1649
-12 c3 -7 0 -10 -6 -6 -6 3 -18 -4 -27 -16 -12 -18 -17 -20 -24 -10 -6 11 -17
7 -45 -18 -20 -18 -36 -28 -36 -22 0 5 7 15 15 22 8 7 12 17 8 23 -3 5 -1 7 5
3 6 -3 17 1 25 9 9 8 22 15 31 15 8 0 18 5 21 11 9 13 27 7 33 -11z m337 10
c14 -5 7 -8 -27 -8 -27 0 -48 4 -48 9 0 11 47 11 75 -1z m1402 4 c-3 -3 -12
-4 -19 -1 -8 3 -5 6 6 6 11 1 17 -2 13 -5z m-1627 -9 c0 -2 -9 -9 -20 -15 -12
-6 -20 -7 -20 -1 0 5 8 12 18 14 9 3 18 5 20 6 1 0 2 -1 2 -4z m727 -1 c-3 -3
-12 -4 -19 -1 -8 3 -5 6 6 6 11 1 17 -2 13 -5z m203 0 c0 0 -5 -16 -11 -34
-10 -27 -13 -30 -21 -16 -5 9 -6 21 -3 26 3 6 -2 10 -12 10 -15 0 -15 2 -4 9
12 8 51 11 51 5z m144 -5 c-3 -5 -20 -9 -37 -10 -30 -1 -31 -1 -7 -9 14 -4 37
-5 51 -3 25 5 59 -21 45 -34 -3 -4 -12 2 -19 12 -8 10 -20 15 -28 12 -10 -4
-8 -6 6 -8 11 -1 0 -5 -25 -8 -35 -5 -44 -10 -42 -23 2 -12 -2 -16 -13 -12
-12 5 -14 15 -9 40 4 22 2 34 -5 34 -6 0 -11 -4 -11 -10 0 -5 -4 -10 -10 -10
-14 0 -8 24 8 30 21 9 102 8 96 -1z m306 1 c13 -9 13 -10 0 -10 -8 0 -22 5
-30 10 -13 9 -13 10 0 10 8 0 22 -5 30 -10z m405 -13 l27 -23 -20 -24 c-14
-17 -30 -24 -58 -24 -32 -1 -48 -10 -87 -45 -34 -32 -44 -47 -35 -53 23 -14 0
-9 -36 9 -44 21 -34 37 36 58 27 8 61 23 75 35 16 12 30 17 36 11 13 -13 67
10 67 31 0 29 -20 31 -56 3 -19 -15 -38 -25 -40 -22 -3 3 11 16 31 30 24 16
32 27 23 30 -9 4 -9 6 -1 6 7 1 24 -9 38 -22z m55 13 c0 -14 -28 -19 -38 -7
-8 9 -4 12 14 13 13 1 24 -2 24 -6z m235 1 c17 -7 15 -9 -13 -13 -17 -2 -32
-1 -32 3 0 4 -8 10 -17 12 -10 3 -4 5 12 5 17 0 39 -3 50 -7z m-2508 -7 c-3
-3 -12 -4 -19 -1 -8 3 -5 6 6 6 11 1 17 -2 13 -5z m593 -19 c-5 -6 -7 -14 -4
-18 12 -11 -38 -18 -52 -6 -12 10 -13 9 -9 -3 5 -11 -1 -15 -19 -15 -39 0 -31
13 22 40 48 24 82 26 62 2z m1060 9 c0 -8 5 -12 10 -9 6 3 10 2 10 -4 0 -17
-20 -23 -35 -11 -8 6 -11 18 -8 26 7 19 23 18 23 -2z m-1465 -4 c3 -5 1 -10
-4 -10 -6 0 -11 5 -11 10 0 6 2 10 4 10 3 0 8 -4 11 -10z m510 -9 c3 -5 -8 -9
-25 -9 -21 1 -27 4 -18 9 17 11 35 11 43 0z m1299 -32 c-24 -22 -74 -36 -74
-20 0 7 6 11 13 10 23 -3 57 13 57 28 0 8 5 11 11 7 7 -4 5 -12 -7 -25z
m-1824 18 c0 -2 -12 -14 -27 -28 l-28 -24 24 28 c23 25 31 32 31 24z m1061
-10 c-5 -5 -17 -5 -28 2 -16 9 -15 10 9 9 16 -2 24 -6 19 -11z m679 9 c0 -2
-8 -10 -17 -17 -16 -13 -17 -12 -4 4 13 16 21 21 21 13z m600 -6 c0 -5 -4 -10
-10 -10 -5 0 -10 5 -10 10 0 6 5 10 10 10 6 0 10 -4 10 -10z m-2189 -52 c13
-11 17 -16 9 -12 -24 11 -60 46 -60 58 0 5 6 2 13 -8 7 -10 24 -27 38 -38z
m1192 20 c-6 -11 -31 -10 -37 1 -3 5 5 8 18 7 13 0 22 -4 19 -8z m-1318 -29
c-22 -3 -51 -9 -65 -13 -14 -5 -22 -5 -18 -1 12 12 102 33 113 26 6 -3 -8 -8
-30 -12z m1664 12 c2 0 -2 -7 -8 -15 -13 -16 -51 -10 -51 8 0 9 39 14 59 7z
m481 -22 c6 -10 9 -19 6 -19 -9 0 -36 31 -36 41 0 14 18 1 30 -22z m223 24
c-7 -2 -19 -2 -25 0 -7 3 -2 5 12 5 14 0 19 -2 13 -5z m-1403 -24 c0 -6 -4 -7
-10 -4 -5 3 -10 11 -10 16 0 6 5 7 10 4 6 -3 10 -11 10 -16z m-100 -19 c-25
-6 -25 -6 -2 -12 12 -3 22 -11 22 -18 0 -7 -8 -9 -20 -5 -14 4 -20 2 -20 -9 0
-9 12 -19 28 -23 22 -6 15 -9 -38 -14 -63 -6 -100 1 -100 21 0 6 3 9 8 8 4 -2
7 -1 8 2 0 3 14 19 30 37 33 35 60 44 89 29 19 -9 19 -10 -5 -16z m263 23 c-7
-2 -13 -12 -12 -21 0 -11 2 -13 6 -4 4 10 8 10 19 1 11 -9 14 -7 14 10 0 11 5
21 10 21 6 0 10 -13 10 -29 0 -30 -28 -51 -40 -30 -4 6 -10 10 -14 10 -20 -3
-23 1 -18 24 2 15 11 25 21 24 10 0 11 -2 4 -6z m1141 -7 c-3 -8 -21 -16 -39
-18 -37 -4 -37 -2 -3 18 31 17 48 17 42 0z m-1237 -22 c-3 -3 -12 -4 -19 -1
-8 3 -5 6 6 6 11 1 17 -2 13 -5z m568 -3 c-6 -4 -23 -11 -40 -15 l-30 -6 25
15 c27 16 60 21 45 6z m590 -22 c11 -1 2 -5 -20 -8 -47 -8 -74 -3 -53 10 7 4
22 6 33 4 11 -2 29 -4 40 -6z m-2185 -3 c0 -2 -7 -7 -16 -10 -8 -3 -12 -2 -9
4 6 10 25 14 25 6z m107 -37 c8 -8 13 -8 17 0 9 14 43 14 52 -1 4 -7 3 -8 -4
-4 -7 4 -22 0 -34 -8 -27 -19 -39 -20 -35 -3 1 8 -9 11 -33 9 -26 -1 -31 0
-20 8 20 13 43 13 57 -1z m826 -6 c-7 -2 -19 -2 -25 0 -7 3 -2 5 12 5 14 0 19
-2 13 -5z m1004 1 c-3 -3 -12 -4 -19 -1 -8 3 -5 6 6 6 11 1 17 -2 13 -5z
m-960 -10 c-3 -3 -12 -4 -19 -1 -8 3 -5 6 6 6 11 1 17 -2 13 -5z m53 -3 c0 -6
-4 -13 -10 -16 -5 -3 -10 1 -10 9 0 9 5 16 10 16 6 0 10 -4 10 -9z m143 -27
l18 -24 -36 21 c-20 12 -39 18 -43 14 -4 -4 -1 -10 6 -12 6 -3 12 -9 12 -15 0
-7 -19 -8 -57 -4 l-57 7 20 -23 c28 -34 36 -38 72 -38 30 0 32 -2 22 -20 -8
-16 -21 -20 -60 -20 -49 0 -73 13 -45 24 20 7 19 35 -1 57 -15 16 -14 19 5 40
15 17 27 20 51 16 16 -4 30 -3 30 2 0 17 45 -1 63 -25z m-913 1 c0 -14 -4 -25
-10 -25 -5 0 -10 11 -10 25 0 14 5 25 10 25 6 0 10 -11 10 -25z m940 15 c0 -5
-7 -10 -15 -10 -8 0 -15 5 -15 10 0 6 7 10 15 10 8 0 15 -4 15 -10z m144 -32
c7 -5 5 -8 -6 -8 -11 0 -18 -8 -18 -20 0 -11 -5 -20 -11 -20 -6 0 -9 9 -6 20
4 14 0 20 -11 21 -16 1 -16 2 -1 6 10 2 20 14 24 26 7 21 7 21 12 2 3 -11 10
-23 17 -27z m51 33 c3 -5 2 -12 -3 -15 -13 -8 -53 5 -46 15 7 12 41 12 49 0z
m101 0 c-9 -14 -55 -22 -72 -13 -12 7 -8 9 16 10 18 0 35 3 38 6 9 9 24 7 18
-3z m944 -1 c0 -5 8 -10 18 -11 14 0 13 -2 -5 -11 -24 -11 -93 -3 -93 12 0 8
18 13 68 19 6 0 12 -3 12 -9z m-1157 -7 c-13 -2 -35 -2 -50 0 -16 2 -5 4 22 4
28 0 40 -2 28 -4z m-955 -12 c10 -5 38 -12 62 -16 60 -8 80 -15 80 -26 0 -5
-10 -9 -22 -9 -19 0 -20 2 -8 11 11 8 2 9 -35 5 -37 -4 -46 -3 -35 5 11 8 5 9
-25 5 -25 -4 -33 -3 -20 3 18 7 17 9 -10 19 -17 6 -24 11 -17 11 7 1 21 -3 30
-8z m2017 -21 c7 -12 -2 -12 -30 0 -19 8 -19 9 2 9 12 1 25 -3 28 -9z m-965
-69 c0 -23 -19 -31 -70 -31 -39 0 -75 23 -65 41 4 5 35 9 71 9 56 0 64 -2 64
-19z m70 -7 c0 -8 -5 -14 -11 -14 -5 0 -7 5 -4 10 3 6 -4 10 -17 11 -22 0 -22
1 -3 8 24 10 35 5 35 -15z m145 6 c3 -5 -1 -10 -10 -10 -9 0 -13 5 -10 10 3 6
8 10 10 10 2 0 7 -4 10 -10z m-1572 -20 c-3 -11 -9 -20 -15 -20 -5 0 -4 9 2
20 6 11 12 20 14 20 2 0 2 -9 -1 -20z m204 -46 c-3 -3 -12 -4 -19 -1 -8 3 -5
6 6 6 11 1 17 -2 13 -5z m3108 -17 c65 -17 84 -25 68 -29 -13 -3 -23 -3 -23 1
0 11 -140 42 -152 35 -7 -4 -8 -2 -4 4 9 15 5 16 111 -11z m-2250 -56 c-3 -6
-11 -8 -17 -5 -6 4 -5 9 3 15 16 10 23 4 14 -10z m60 0 c-3 -6 -11 -11 -17
-11 -6 0 -6 6 2 15 14 17 26 13 15 -4z m55 -1 c0 -5 -5 -10 -11 -10 -5 0 -7 5
-4 10 3 6 8 10 11 10 2 0 4 -4 4 -10z m60 0 c0 -5 -4 -10 -10 -10 -5 0 -10 5
-10 10 0 6 5 10 10 10 6 0 10 -4 10 -10z m60 1 c0 -6 -4 -13 -10 -16 -5 -3
-10 1 -10 9 0 9 5 16 10 16 6 0 10 -4 10 -9z m1687 -7 c-3 -3 -12 -4 -19 -1
-8 3 -5 6 6 6 11 1 17 -2 13 -5z m259 -17 c-6 -4 -41 -4 -78 -1 -72 7 -123 -1
-113 -16 6 -10 -48 -16 -113 -12 -29 1 -92 32 -66 32 5 0 15 -5 22 -12 18 -18
127 -13 155 7 17 12 43 15 113 13 51 -2 87 -6 80 -11z"/>
<path d="M2710 2410 c0 -16 5 -21 23 -18 12 2 22 10 22 18 0 8 -10 16 -22 18
-18 3 -23 -2 -23 -18z"/>
<path d="M2710 2350 c0 -17 5 -21 28 -18 16 2 27 9 27 18 0 9 -11 16 -27 18
-23 3 -28 -1 -28 -18z"/>
<path d="M3708 1128 c9 -9 15 -9 24 0 9 9 7 12 -12 12 -19 0 -21 -3 -12 -12z"/>
<path d="M4280 1020 c-12 -8 -9 -10 13 -10 16 0 26 4 22 10 -8 12 -16 12 -35
0z"/>
</g>
</svg>
