<?xml version="1.0" standalone="no"?>
<!DOCTYPE svg PUBLIC "-//W3C//DTD SVG 20010904//EN"
 "http://www.w3.org/TR/2001/REC-SVG-20010904/DTD/svg10.dtd">
<svg version="1.0" xmlns="http://www.w3.org/2000/svg"
 width="234.000000pt" height="216.000000pt" viewBox="0 0 234.000000 216.000000"
 preserveAspectRatio="xMidYMid meet">

<g transform="translate(0.000000,216.000000) scale(0.100000,-0.100000)"
fill="#000000" stroke="none">
<path d="M1443 2134 c-3 -9 2 -32 11 -51 9 -20 16 -37 14 -38 -2 -2 -37 6 -78
17 -95 25 -280 34 -379 19 -153 -24 -321 -97 -321 -140 0 -42 34 -44 109 -6
148 74 371 99 541 60 97 -22 102 -26 54 -40 -32 -8 -40 -16 -42 -38 -5 -40 18
-43 123 -18 129 31 131 33 107 103 -29 82 -77 148 -108 148 -13 0 -27 -7 -31
-16z"/>
<path d="M1041 1730 c-80 -17 -223 -72 -250 -96 -2 -2 10 -19 28 -39 17 -20
42 -58 56 -85 14 -28 27 -50 30 -50 21 0 95 47 95 60 0 25 11 31 28 17 13 -10
14 -9 10 3 -3 8 -16 15 -29 15 -17 0 -25 7 -27 21 -2 16 13 32 66 69 63 42 74
46 108 40 22 -3 50 -13 64 -20 l25 -14 -25 -1 c-22 0 -23 -1 -9 -16 13 -12 20
-13 42 -3 15 7 27 17 27 23 0 6 4 5 9 -3 7 -11 15 -11 41 -2 18 6 45 11 60 11
24 0 59 24 49 34 -33 32 -303 56 -398 36z"/>
<path d="M1632 1669 c-64 -25 -139 -97 -172 -164 -21 -42 -25 -65 -25 -140 0
-78 4 -97 28 -147 98 -200 368 -245 526 -87 123 123 129 321 14 449 -67 75
-128 103 -233 107 -68 2 -95 -1 -138 -18z m219 -158 c41 -41 38 -58 -12 -63
-31 -3 -43 0 -50 14 -12 22 -45 24 -53 2 -3 -8 -3 -26 0 -40 5 -19 13 -24 40
-24 31 0 34 -3 34 -30 0 -26 -3 -30 -29 -30 -21 0 -30 -6 -34 -22 -4 -12 -4
-24 -1 -27 2 -3 31 -5 63 -5 57 -1 60 -2 75 -34 16 -32 16 -33 -12 -43 -16 -7
-45 -8 -72 -3 -58 10 -121 10 -140 1 -11 -5 -19 1 -28 25 -10 28 -9 35 8 53
26 28 26 55 0 55 -16 0 -20 7 -20 30 0 19 5 30 14 30 11 0 13 10 9 40 -5 34
-2 43 25 70 27 27 37 30 92 30 55 0 65 -3 91 -29z"/>
<path d="M380 1627 c-184 -52 -286 -254 -218 -434 27 -73 101 -153 171 -184
72 -33 201 -34 269 -2 162 74 240 276 167 433 -37 79 -81 125 -154 161 -74 36
-164 46 -235 26z m110 -142 c0 -9 9 -15 25 -15 28 0 75 -40 75 -63 0 -23 -70
-30 -86 -9 -12 15 -13 14 -14 -14 0 -28 5 -33 43 -48 93 -35 93 -144 -1 -183
-20 -8 -42 -22 -49 -32 -12 -15 -15 -14 -29 7 -9 12 -25 22 -34 22 -24 0 -76
44 -83 69 -9 36 72 43 96 9 16 -23 16 -23 16 13 1 34 -2 38 -40 53 -54 22 -76
70 -55 120 15 37 41 56 75 56 12 0 21 7 21 15 0 8 9 15 20 15 11 0 20 -7 20
-15z"/>
<path d="M430 1390 c0 -11 5 -20 10 -20 6 0 10 9 10 20 0 11 -4 20 -10 20 -5
0 -10 -9 -10 -20z"/>
<path d="M490 1235 c0 -32 2 -36 15 -25 8 7 15 18 15 25 0 7 -7 18 -15 25 -13
11 -15 7 -15 -25z"/>
<path d="M1040 1402 c0 -4 11 -18 24 -31 25 -24 25 -71 0 -71 -17 0 -18 17 -1
23 15 5 -40 67 -60 67 -19 0 -70 -52 -78 -79 -6 -21 -5 -23 11 -16 11 5 36 10
57 13 36 4 37 3 37 -27 0 -27 5 -34 35 -47 43 -18 55 -18 55 1 0 12 5 12 41 0
55 -20 76 -19 89 4 19 37 12 51 -24 51 -28 0 -36 5 -46 30 -14 34 -37 35 -32
2 5 -34 -17 -26 -33 12 -14 32 -75 88 -75 68z"/>
<path d="M1388 1011 c-55 -30 -65 -56 -18 -46 19 4 30 3 30 -5 0 -17 -39 -91
-76 -141 l-33 -45 37 -13 c134 -47 265 -198 287 -332 l7 -39 49 41 c60 50 138
153 178 235 35 72 71 194 71 240 l0 32 -47 -14 c-58 -18 -163 -18 -228 0 -59
15 -104 37 -165 80 l-45 32 -47 -25z"/>
<path d="M739 944 c-54 -41 -135 -74 -215 -86 l-75 -12 7 -30 c26 -125 147
-324 234 -386 l29 -21 12 43 c32 119 136 243 246 293 52 24 60 31 52 46 -5 10
-9 34 -9 53 0 29 -4 36 -20 36 -11 0 -20 5 -20 11 0 7 -23 8 -68 3 -68 -6 -69
-6 -95 26 -15 17 -27 36 -27 41 0 15 -14 10 -51 -17z m-129 -204 c0 -14 -6
-35 -14 -46 -8 -11 -16 -36 -18 -55 -4 -33 -5 -31 -45 51 -23 47 -45 98 -49
113 l-6 28 66 -33 c56 -27 66 -36 66 -58z"/>
<path d="M81 844 c-45 -52 -84 -125 -79 -150 2 -9 11 -22 21 -28 16 -9 24 -5
51 27 l32 38 18 -68 c20 -79 90 -231 135 -297 52 -75 142 -166 215 -217 71
-51 93 -58 114 -37 24 24 11 46 -52 87 -75 48 -187 165 -234 244 -44 73 -99
202 -108 252 l-7 40 32 -30 c25 -24 35 -27 49 -19 38 24 27 54 -49 130 -41 41
-79 74 -85 74 -7 0 -30 -21 -53 -46z"/>
<path d="M2121 816 c-76 -76 -87 -106 -49 -130 14 -8 24 -5 49 19 l32 30 -7
-40 c-9 -50 -64 -179 -108 -252 -47 -79 -156 -193 -233 -243 -64 -42 -77 -64
-53 -88 21 -21 43 -14 114 37 73 51 163 142 215 217 45 66 115 218 135 297
l18 68 32 -38 c27 -32 35 -36 51 -27 26 16 27 39 3 88 -24 50 -96 136 -114
136 -6 0 -44 -33 -85 -74z"/>
<path d="M1057 645 c-180 -68 -264 -274 -184 -449 54 -118 163 -186 297 -186
134 0 235 62 292 178 29 59 33 76 33 147 0 66 -5 90 -26 136 -33 69 -89 127
-155 160 -60 30 -196 37 -257 14z m213 -154 c0 -39 -10 -50 -40 -44 -23 4 -35
-1 -57 -23 l-28 -29 40 -5 c27 -3 41 -10 43 -22 3 -15 -4 -18 -37 -18 -30 0
-41 -4 -41 -15 0 -11 11 -15 41 -15 33 0 40 -3 37 -17 -2 -13 -14 -19 -41 -21
-42 -4 -46 -13 -16 -43 16 -16 29 -20 54 -16 35 6 45 -4 45 -44 0 -16 -7 -19
-55 -19 -31 0 -69 7 -85 15 -30 15 -60 61 -60 90 0 8 -9 15 -20 15 -13 0 -20
7 -20 20 0 13 7 20 20 20 11 0 20 7 20 15 0 8 -9 15 -20 15 -13 0 -20 7 -20
20 0 13 7 20 20 20 12 0 20 7 20 18 0 52 72 102 148 102 45 0 52 -3 52 -19z"/>
</g>
</svg>
